<svg viewBox="0 0 320 256" role="img" aria-label="Dual screen" xmlns="http://www.w3.org/2000/svg">
  <path fill="currentColor" d="M28 52h116c11.046 0 20 8.954 20 20v84c0 11.046-8.954 20-20 20h-38v20h26c5.523 0 10 4.477 10 10s-4.477 10-10 10H40c-5.523 0-10-4.477-10-10s4.477-10 10-10h26v-20H28c-11.046 0-20-8.954-20-20V72c0-11.046 8.954-20 20-20Zm0 20v76h116V72H28Zm58 88a7 7 0 1 0 0 14 7 7 0 0 0 0-14ZM176 52h116c11.046 0 20 8.954 20 20v84c0 11.046-8.954 20-20 20h-38v20h26c5.523 0 10 4.477 10 10s-4.477 10-10 10h-92c-5.523 0-10-4.477-10-10s4.477-10 10-10h26v-20h-38c-11.046 0-20-8.954-20-20V72c0-11.046 8.954-20 20-20Zm0 20v76h116V72H176Zm58 88a7 7 0 1 0 0 14 7 7 0 0 0 0-14Z" style="fill:#8d98a8;fill-opacity:1"/>
</svg>
